<?xml version="1.0" encoding="UTF-8" standalone="no"?>
<!-- Created with Inkscape (http://www.inkscape.org/) -->

<svg
   width="350"
   height="350"
   viewBox="0 0 92.604168 92.604168"
   version="1.1"
   id="svg5"
   sodipodi:docname="71kb-vert.svg"
   inkscape:version="1.2 (dc2aedaf03, 2022-05-15)"
   inkscape:export-filename="71kb-vert.png"
   inkscape:export-xdpi="100"
   inkscape:export-ydpi="100"
   xmlns:inkscape="http://www.inkscape.org/namespaces/inkscape"
   xmlns:sodipodi="http://sodipodi.sourceforge.net/DTD/sodipodi-0.dtd"
   xmlns="http://www.w3.org/2000/svg"
   xmlns:svg="http://www.w3.org/2000/svg">
  <sodipodi:namedview
     id="namedview7"
     pagecolor="#ffffff"
     bordercolor="#000000"
     borderopacity="0.25"
     inkscape:showpageshadow="2"
     inkscape:pageopacity="0.0"
     inkscape:pagecheckerboard="0"
     inkscape:deskcolor="#d1d1d1"
     inkscape:document-units="mm"
     showgrid="false"
     showguides="true"
     inkscape:zoom="2.2914286"
     inkscape:cx="156.88903"
     inkscape:cy="151.43391"
     inkscape:window-width="1920"
     inkscape:window-height="1011"
     inkscape:window-x="0"
     inkscape:window-y="0"
     inkscape:window-maximized="1"
     inkscape:current-layer="text186">
    <sodipodi:guide
       position="35.383511,56.003483"
       orientation="0,-1"
       id="guide12280"
       inkscape:locked="false" />
    <sodipodi:guide
       position="41.711468,62.33144"
       orientation="0,-1"
       id="guide12282"
       inkscape:locked="false" />
    <sodipodi:guide
       position="8.2857381,62.33144"
       orientation="1,0"
       id="guide12284"
       inkscape:locked="false" />
    <sodipodi:guide
       position="30.422566,62.33144"
       orientation="1,0"
       id="guide12286"
       inkscape:locked="false" />
    <sodipodi:guide
       position="32.230555,62.33144"
       orientation="1,0"
       id="guide12288"
       inkscape:locked="false" />
    <sodipodi:guide
       position="41.711468,62.33144"
       orientation="1,0"
       id="guide12290"
       inkscape:locked="false" />
    <sodipodi:guide
       position="48.039423,56.00349"
       orientation="1,0"
       id="guide12292"
       inkscape:locked="false" />
    <sodipodi:guide
       position="63.954424,48.743921"
       orientation="1,0"
       id="guide12294"
       inkscape:locked="false" />
    <sodipodi:guide
       position="12.849805,30.713699"
       orientation="0,-1"
       id="guide12298"
       inkscape:locked="false" />
    <sodipodi:guide
       position="65.76241,56.003483"
       orientation="1,0"
       id="guide12385"
       inkscape:locked="false" />
    <sodipodi:guide
       position="84.318423,39.85603"
       orientation="1,0"
       id="guide12387"
       inkscape:locked="false" />
  </sodipodi:namedview>
  <defs
     id="defs2" />
  <g
     inkscape:label="Layer 1"
     inkscape:groupmode="layer"
     id="layer1">
    <g
       aria-label="71kb"
       id="text186"
       style="font-weight:bold;font-size:45.1556px;font-family:Tomorrow;-inkscape-font-specification:'Tomorrow Bold';fill:#999999;stroke:#000000">
      <rect
         style="opacity:1;fill:#1a1a1a;fill-opacity:1;stroke:none;stroke-width:1"
         id="rect12259"
         width="92.604164"
         height="92.604164"
         x="0"
         y="0" />
      <g
         id="g371"
         transform="translate(0,-8.0181067)">
        <g
           id="g12205"
           transform="matrix(1.5211374,0,0,1.5211374,-72.611514,-24.620133)"
           style="fill:#f9f9f9">
          <path
             d="m 75.318907,36.08672 -10.80383,31.61774 h -6.768931 l 8.8856,-25.289783 H 53.182079 V 36.08672 Z"
             style="font-family:Righteous;-inkscape-font-specification:'Righteous Bold';fill:#f9f9f9;stroke:none"
             id="path1519" />
          <path
             d="M 86.607808,67.70446 H 80.279851 V 42.414677 H 77.126896 V 36.08672 h 9.480912 z"
             style="font-family:Righteous;-inkscape-font-specification:'Righteous Bold';fill:#f9f9f9;stroke:none"
             id="path1521" />
          <g
             id="g12278"
             style="fill:#73b444;fill-opacity:1"
             transform="matrix(0.76928169,0,0,0.76928169,21.767674,15.722406)">
            <path
               d="m 105.81105,60.704059 c 0,1.021104 -0.17424,1.953063 -0.52271,2.795879 -0.34846,0.842816 -0.82256,1.568123 -1.42225,2.175923 -0.59969,0.599695 -1.30475,1.065675 -2.11515,1.397938 -0.80229,0.332262 -1.66536,0.498399 -2.589212,0.498399 -0.915759,0 -1.778838,-0.170189 -2.589231,-0.510556 -0.802301,-0.340366 -1.507343,-0.81445 -2.115147,-1.42225 -0.599689,-0.607799 -1.07378,-1.329055 -1.422251,-2.163767 -0.348466,-0.842815 -0.522707,-1.76667 -0.522707,-2.771566 V 49.131555 h 3.33075 v 3.038998 3.038998 c 0.178288,-0.226912 0.39304,-0.429511 0.644263,-0.607799 0.259326,-0.178288 0.534863,-0.32416 0.826608,-0.437616 0.29985,-0.113456 0.607799,-0.198548 0.923852,-0.255276 0.316059,-0.06483 0.624008,-0.09725 0.923863,-0.09725 0.923852,0 1.786922,0.174236 2.589212,0.522708 0.8104,0.340368 1.51546,0.818503 2.11515,1.434407 0.59969,0.615904 1.07379,1.345263 1.42225,2.188079 0.34847,0.834711 0.52271,1.750462 0.52271,2.747253 z m -3.3429,0 c 0,-0.502447 -0.0891,-0.968426 -0.26743,-1.397939 -0.17019,-0.437615 -0.4052,-0.814451 -0.70505,-1.130507 -0.29985,-0.316056 -0.65237,-0.563228 -1.05757,-0.741516 -0.3971,-0.178288 -0.822553,-0.267431 -1.276372,-0.267431 -0.45383,0 -0.883341,0.1013 -1.288543,0.3039 -0.397093,0.194496 -0.745559,0.457876 -1.045409,0.790139 -0.299848,0.32416 -0.534862,0.700996 -0.705051,1.130507 -0.170184,0.421409 -0.255275,0.859024 -0.255275,1.312847 0,0.502448 0.08509,0.968428 0.255275,1.39794 0.170189,0.429511 0.405203,0.802295 0.705051,1.118351 0.29985,0.316056 0.648316,0.567279 1.045409,0.753671 0.405202,0.178288 0.834713,0.267432 1.288543,0.267432 0.453819,0 0.879272,-0.08914 1.276372,-0.267432 0.4052,-0.186392 0.75772,-0.437615 1.05757,-0.753671 0.29985,-0.316056 0.53486,-0.68884 0.70505,-1.118351 0.17828,-0.429512 0.26743,-0.895492 0.26743,-1.39794 z"
               style="font-weight:bold;font-size:45.1556px;font-family:Righteous;-inkscape-font-specification:'Righteous Bold';fill:#73b444;fill-opacity:1;stroke:none;stroke-width:0.551326"
               id="path1525"
               sodipodi:nodetypes="ssccscccscccccccscscsscscscccssscscscs" />
            <g
               id="g360"
               transform="matrix(0.5513263,0,0,0.5513263,41.507873,7.3421256)">
              <g
                 id="g355">
                <path
                   d="M 98.575772,67.704459 H 92.512398 V 34.697655 h 6.063374 v 20.81391 c 0,12.192894 -2e-6,5e-6 0,9.172231 z"
                   style="font-family:Righteous;-inkscape-font-specification:'Righteous Bold';fill:#73b444;fill-opacity:1;stroke:none"
                   id="path1523"
                   sodipodi:nodetypes="ccccccc" />
                <path
                   style="opacity:1;fill:#73b444;fill-opacity:1;stroke:none;stroke-width:1"
                   d="m 98.575772,53.898555 7.701488,-9.764085 6.92327,1.1e-5 -7.82727,9.833689 7.82727,13.736299 h -6.92327 z"
                   id="path2234" />
              </g>
            </g>
          </g>
        </g>
      </g>
    </g>
  </g>
</svg>
