<?xml version="1.0" encoding="UTF-8" standalone="no"?>
<!-- Created with Inkscape (http://www.inkscape.org/) -->

<svg
   width="350"
   height="350"
   viewBox="0 0 92.604168 92.604168"
   version="1.1"
   id="svg5"
   sodipodi:docname="71kb.svg"
   inkscape:version="1.2 (dc2aedaf03, 2022-05-15)"
   inkscape:export-filename="71kb.png"
   inkscape:export-xdpi="100"
   inkscape:export-ydpi="100"
   xmlns:inkscape="http://www.inkscape.org/namespaces/inkscape"
   xmlns:sodipodi="http://sodipodi.sourceforge.net/DTD/sodipodi-0.dtd"
   xmlns="http://www.w3.org/2000/svg"
   xmlns:svg="http://www.w3.org/2000/svg">
  <sodipodi:namedview
     id="namedview7"
     pagecolor="#ffffff"
     bordercolor="#000000"
     borderopacity="0.25"
     inkscape:showpageshadow="2"
     inkscape:pageopacity="0.0"
     inkscape:pagecheckerboard="0"
     inkscape:deskcolor="#d1d1d1"
     inkscape:document-units="mm"
     showgrid="false"
     showguides="true"
     inkscape:zoom="2.2914286"
     inkscape:cx="153.61596"
     inkscape:cy="171.07231"
     inkscape:window-width="1920"
     inkscape:window-height="1011"
     inkscape:window-x="0"
     inkscape:window-y="0"
     inkscape:window-maximized="1"
     inkscape:current-layer="g12205">
    <sodipodi:guide
       position="35.383511,56.003483"
       orientation="0,-1"
       id="guide12280"
       inkscape:locked="false" />
    <sodipodi:guide
       position="41.711468,62.33144"
       orientation="0,-1"
       id="guide12282"
       inkscape:locked="false" />
    <sodipodi:guide
       position="8.2857381,62.33144"
       orientation="1,0"
       id="guide12284"
       inkscape:locked="false" />
    <sodipodi:guide
       position="30.422566,62.33144"
       orientation="1,0"
       id="guide12286"
       inkscape:locked="false" />
    <sodipodi:guide
       position="32.230555,62.33144"
       orientation="1,0"
       id="guide12288"
       inkscape:locked="false" />
    <sodipodi:guide
       position="41.711468,62.33144"
       orientation="1,0"
       id="guide12290"
       inkscape:locked="false" />
    <sodipodi:guide
       position="48.039423,56.00349"
       orientation="1,0"
       id="guide12292"
       inkscape:locked="false" />
    <sodipodi:guide
       position="63.954424,48.743921"
       orientation="1,0"
       id="guide12294"
       inkscape:locked="false" />
    <sodipodi:guide
       position="12.849805,30.713699"
       orientation="0,-1"
       id="guide12298"
       inkscape:locked="false" />
    <sodipodi:guide
       position="65.76241,56.003483"
       orientation="1,0"
       id="guide12385"
       inkscape:locked="false" />
    <sodipodi:guide
       position="84.318423,39.85603"
       orientation="1,0"
       id="guide12387"
       inkscape:locked="false" />
  </sodipodi:namedview>
  <defs
     id="defs2" />
  <g
     inkscape:label="Layer 1"
     inkscape:groupmode="layer"
     id="layer1">
    <g
       aria-label="71kb"
       id="text186"
       style="font-weight:bold;font-size:45.1556px;font-family:Tomorrow;-inkscape-font-specification:'Tomorrow Bold';fill:#999999;stroke:#000000">
      <rect
         style="opacity:1;fill:#1a1a1a;fill-opacity:1;stroke:none;stroke-width:1"
         id="rect12259"
         width="92.604164"
         height="92.604164"
         x="0"
         y="0" />
      <g
         id="g12205"
         transform="translate(-44.896341,-5.8139922)"
         style="fill:#f9f9f9">
        <path
           d="m 75.318907,36.08672 -10.80383,31.61774 h -6.768931 l 8.8856,-25.289783 H 53.182079 V 36.08672 Z"
           style="font-family:Righteous;-inkscape-font-specification:'Righteous Bold';fill:#f9f9f9;stroke:none"
           id="path1519" />
        <path
           d="M 86.607808,67.70446 H 80.279851 V 42.414677 H 77.126896 V 36.08672 h 9.480912 z"
           style="font-family:Righteous;-inkscape-font-specification:'Righteous Bold';fill:#f9f9f9;stroke:none"
           id="path1521" />
        <g
           id="g2240"
           transform="matrix(0.76928169,0,0,0.76928169,21.767674,15.722406)"
           style="fill:#73b444;fill-opacity:1">
          <g
             id="g12278"
             style="fill:#73b444;fill-opacity:1">
            <path
               d="m 139.67197,55.687954 c 0,1.852085 -0.31604,3.542481 -0.9481,5.071187 -0.63205,1.528705 -1.49196,2.844273 -2.57969,3.946705 -1.08773,1.087733 -2.36656,1.932931 -3.83647,2.535593 -1.4552,0.602662 -3.02065,0.903994 -4.69634,0.903994 -1.66101,0 -3.22647,-0.308682 -4.69637,-0.926043 -1.45522,-0.617362 -2.73403,-1.477258 -3.83647,-2.57969 -1.08772,-1.102432 -1.94763,-2.410652 -2.57969,-3.924658 -0.63205,-1.528705 -0.94809,-3.204401 -0.94809,-5.027088 V 34.697655 h 6.04134 v 5.512158 5.512158 c 0.32338,-0.411574 0.7129,-0.77905 1.16857,-1.102431 0.47037,-0.32338 0.97014,-0.587963 1.49931,-0.793751 0.54387,-0.205788 1.10243,-0.360128 1.67569,-0.463022 0.57327,-0.11759 1.13183,-0.176388 1.67571,-0.176388 1.67569,0 3.24114,0.31603 4.69634,0.948091 1.46991,0.617362 2.74874,1.484607 3.83647,2.601739 1.08773,1.117131 1.94764,2.440049 2.57969,3.968755 0.63206,1.514006 0.9481,3.175002 0.9481,4.98299 z m -6.06339,0 c 0,-0.911343 -0.16169,-1.75654 -0.48507,-2.535593 -0.30868,-0.793751 -0.73495,-1.477259 -1.27882,-2.050523 -0.54387,-0.573265 -1.18327,-1.021587 -1.91823,-1.344967 -0.72026,-0.323381 -1.49195,-0.48507 -2.31509,-0.48507 -0.82316,0 -1.60221,0.183739 -2.33717,0.551217 -0.72025,0.352778 -1.3523,0.830499 -1.89617,1.433161 -0.54387,0.587963 -0.97014,1.271471 -1.27883,2.050522 -0.30868,0.764354 -0.46302,1.558104 -0.46302,2.381253 0,0.911344 0.15434,1.756541 0.46302,2.535594 0.30869,0.77905 0.73496,1.455208 1.27883,2.028473 0.54387,0.573265 1.17592,1.028936 1.89617,1.367015 0.73496,0.323381 1.51401,0.485071 2.33717,0.485071 0.82314,0 1.59483,-0.16169 2.31509,-0.485071 0.73496,-0.338079 1.37436,-0.79375 1.91823,-1.367015 0.54387,-0.573265 0.97014,-1.249423 1.27882,-2.028473 0.32338,-0.779053 0.48507,-1.62425 0.48507,-2.535594 z"
               style="font-weight:bold;font-size:45.1556px;font-family:Righteous;-inkscape-font-specification:'Righteous Bold';fill:#73b444;fill-opacity:1;stroke:none;stroke-width:1"
               id="path1525"
               sodipodi:nodetypes="ssccscccscccccccscscsscscscccssscscscs" />
            <path
               d="M 98.575772,67.704459 H 92.512398 V 34.697655 h 6.063374 v 20.81391 c 0,12.192894 -2e-6,5e-6 0,9.172231 z"
               style="font-family:Righteous;-inkscape-font-specification:'Righteous Bold';fill:#73b444;fill-opacity:1;stroke:none"
               id="path1523"
               sodipodi:nodetypes="ccccccc" />
            <path
               style="opacity:1;fill:#73b444;fill-opacity:1;stroke:none;stroke-width:1"
               d="m 98.575772,53.898555 7.701488,-9.764085 6.92327,1.1e-5 -7.82727,9.833689 7.82727,13.736299 h -6.92327 z"
               id="path2234" />
          </g>
        </g>
      </g>
    </g>
  </g>
</svg>
