<?xml version="1.0" standalone="no"?>
<!DOCTYPE svg PUBLIC "-//W3C//DTD SVG 20010904//EN"
 "http://www.w3.org/TR/2001/REC-SVG-20010904/DTD/svg10.dtd">
<svg version="1.0" xmlns="http://www.w3.org/2000/svg"
 width="400.000000pt" height="400.000000pt" viewBox="0 0 400.000000 400.000000"
 preserveAspectRatio="xMidYMid meet">
<metadata>
Created by potrace 1.14, written by Peter Selinger 2001-2017
</metadata>
<g transform="translate(0.000000,400.000000) scale(0.100000,-0.100000)"
fill="#000000" stroke="none">
<path d="M0 2000 l0 -2000 2000 0 2000 0 0 2000 0 2000 -2000 0 -2000 0 0
-2000z m1809 1033 c0 -5 -159 -471 -353 -1038 l-352 -1030 -222 -3 c-122 -1
-222 -1 -222 2 0 4 562 1605 575 1639 7 16 -18 17 -434 17 l-441 0 0 210 0
210 725 0 c399 0 725 -3 724 -7z m741 -1033 l0 -1040 -205 0 -205 0 0 830 0
830 -105 0 -105 0 0 210 0 210 310 0 310 0 0 -1040z m590 770 l5 -265 104 133
104 132 88 0 c49 0 89 -2 89 -5 0 -3 -45 -62 -100 -130 -55 -69 -100 -130
-100 -134 0 -5 41 -80 91 -167 50 -88 97 -171 105 -186 l15 -28 -93 0 -93 0
-105 190 -105 190 -3 -190 -2 -190 -85 0 -85 0 0 460 0 461 83 -3 82 -3 5
-265z m-10 -1030 c0 -82 2 -150 5 -150 2 0 21 11 41 25 45 31 88 39 169 33
113 -10 210 -81 263 -197 36 -76 37 -197 3 -284 -83 -211 -371 -268 -538 -105
-23 22 -54 68 -70 102 l-28 61 -3 333 -3 332 80 0 81 0 0 -150z"/>
<path d="M3245 1476 c-43 -18 -93 -79 -101 -121 -11 -59 1 -122 30 -160 36
-46 74 -65 134 -65 143 0 218 175 127 296 -44 58 -124 79 -190 50z"/>
</g>
</svg>
